<svg width="50" height="50" viewBox="0 0 50 50" fill="none" xmlns="http://www.w3.org/2000/svg">
    <circle cx="25" cy="25" r="25" fill="#6C83FF"/>
    <path d="M24.9598 42.9999C23.7652 42.9999 22.9118 42.7652 22.3998 42.2959C21.8878 41.8266 21.6318 41.1546 21.6318 40.2799C21.6318 39.8532 21.6638 39.1279 21.7278 38.1039C21.7918 37.0586 21.8772 35.8746 21.9838 34.5519C22.0905 33.2292 22.1972 31.8319 22.3038 30.3599C22.4105 28.8879 22.5172 27.5012 22.6238 26.1999C22.7305 24.8986 22.8158 23.7572 22.8798 22.7759C22.9438 21.7946 21 20.8627 21 20.5C21 20.18 23.1465 20.2799 23.4878 20.2799H25.2478C26.5492 20.2799 27.4238 20.5572 27.8718 21.1119C28.3198 21.6666 28.5438 22.4879 28.5438 23.5759C28.5438 23.6826 28.5225 24.0239 28.4798 24.5999C28.4585 25.1759 28.4158 25.9012 28.3518 26.7759C28.2878 27.6506 28.2132 28.6319 28.1278 29.7199C28.0638 30.7866 27.9892 31.8852 27.9038 33.0159C27.8398 34.1466 27.7652 35.2559 27.6798 36.3439C27.6158 37.4106 27.5518 38.3812 27.4878 39.2559C27.4238 40.1306 27.3705 40.8666 27.3278 41.4639C27.2852 42.0399 27.8635 42.2959 27.8635 42.2959C27.8421 42.4666 28.6078 42.9146 28.5438 42.9999C28.4798 43.0639 26.9118 42.9999 26.7198 42.9999H24.9598Z" fill="#D9D9D9"/>
    <circle cx="24.5" cy="13.5" r="5.5" fill="#D9D9D9"/>
</svg>
